<?xml version="1.0" encoding="UTF-8"?><svg id="Layer_2" xmlns="http://www.w3.org/2000/svg" viewBox="0 0 367.74 104"><defs><style>.cls-1{fill:#fff;}.cls-2{fill:#dc6e6e;}.cls-3{fill:#dcdcdc;stroke:#fff;stroke-miterlimit:10;stroke-width:2px;}</style></defs><g id="SPACING"><circle class="cls-2" cx="52" cy="52" r="52"/><circle class="cls-3" cx="52" cy="52" r="39"/><path class="cls-2" d="m124.17,78.19V26.92h7.06l11.09,30.89h.14v-30.89h7.34v51.26h-6.91l-11.23-30.82h-.14v30.82h-7.34Z"/><path class="cls-2" d="m156.42,78.19V26.92h21.89v6.91h-14.54v15.05h12.67v6.91h-12.67v15.05h14.54v7.34h-21.89Z"/><path class="cls-2" d="m206.82,26.92v39.74c0,1.68-.3,3.23-.9,4.64-.6,1.42-1.45,2.68-2.56,3.78-1.1,1.1-2.38,1.97-3.82,2.59-1.44.62-2.98.94-4.61.94s-3.16-.31-4.57-.94c-1.42-.62-2.68-1.49-3.78-2.59-1.1-1.1-1.97-2.36-2.59-3.78-.62-1.42-.94-2.96-.94-4.64V26.92h7.34v39.02c0,1.83.43,3.17,1.3,4.03s1.94,1.3,3.24,1.3,2.38-.43,3.24-1.3c.86-.86,1.3-2.21,1.3-4.03V26.92h7.34Z"/><path class="cls-2" d="m213.73,78.19V26.92h11.81c8.64,0,12.96,5.02,12.96,15.05,0,3.02-.47,5.59-1.4,7.7-.94,2.11-2.58,3.82-4.93,5.11l7.92,23.4h-7.78l-6.84-21.89h-4.39v21.89h-7.34Zm7.34-44.35v15.98h4.18c1.3,0,2.33-.18,3.1-.54.77-.36,1.37-.88,1.8-1.55.38-.67.65-1.5.79-2.48.14-.98.22-2.12.22-3.42s-.07-2.44-.22-3.42c-.14-.98-.43-1.84-.86-2.56-.91-1.34-2.64-2.02-5.18-2.02h-3.82Z"/><path class="cls-2" d="m243.97,39.02c0-2.06.36-3.89,1.08-5.47.72-1.58,1.68-2.9,2.88-3.96,1.15-1.01,2.46-1.78,3.92-2.3,1.46-.53,2.94-.79,4.43-.79s2.96.26,4.43.79c1.46.53,2.8,1.3,4,2.3,1.15,1.06,2.09,2.38,2.81,3.96.72,1.58,1.08,3.41,1.08,5.47v27.07c0,2.16-.36,4.01-1.08,5.54-.72,1.54-1.66,2.81-2.81,3.82-1.2,1.06-2.53,1.85-4,2.38-1.46.53-2.94.79-4.43.79s-2.96-.26-4.43-.79c-1.46-.53-2.77-1.32-3.92-2.38-1.2-1.01-2.16-2.28-2.88-3.82-.72-1.54-1.08-3.38-1.08-5.54v-27.07Zm7.34,27.07c0,1.78.49,3.08,1.48,3.92.98.84,2.15,1.26,3.49,1.26s2.51-.42,3.49-1.26c.98-.84,1.48-2.15,1.48-3.92v-27.07c0-1.78-.49-3.08-1.48-3.92-.98-.84-2.15-1.26-3.49-1.26s-2.51.42-3.49,1.26c-.98.84-1.48,2.15-1.48,3.92v27.07Z"/><path class="cls-2" d="m275.08,78.19V26.92h21.89v6.91h-14.54v15.55h12.67v6.91h-12.67v21.89h-7.34Z"/><path class="cls-2" d="m301.72,78.19V26.92h7.34v43.92h14.54v7.34h-21.89Z"/><path class="cls-2" d="m328.57,78.19V26.92h7.34v51.26h-7.34Z"/><path class="cls-2" d="m339.44,78.19l10.37-26.86-9.58-24.41h7.78l5.54,15.19,5.62-15.19h7.78l-9.79,24.41,10.58,26.86h-7.78l-6.41-17.28-6.34,17.28h-7.78Z"/><circle class="cls-2" cx="52" cy="52" r="27"/><path class="cls-1" d="m52,26c14.36,0,26,11.64,26,26s-11.64,26-26,26-26-11.64-26-26,11.64-26,26-26m0-2c-15.44,0-28,12.56-28,28s12.56,28,28,28,28-12.56,28-28-12.56-28-28-28h0Z"/><polygon class="cls-1" points="71 51.6 40 33.7 40 69.49 71 51.6"/></g></svg>